<svg height="2174" width="720" xmlns="http://www.w3.org/2000/svg">
<rect height="2174" fill="#555" width="720"></rect>
<text fill="#7f7" font-family="Courier New" font-size="12" xml:space="preserve">
<tspan x="10" y="26">21 megabytes installed</tspan>
<tspan x="10" y="42"></tspan>
<tspan x="10" y="58">node_modules</tspan>
<tspan x="10" y="74">└─┬ gulp-istanbul@1.1.1 </tspan>
<tspan x="10" y="90">  ├─┬ gulp-util@3.0.8 </tspan>
<tspan x="10" y="106">  │ ├── array-differ@1.0.0 </tspan>
<tspan x="10" y="122">  │ ├── array-uniq@1.0.3 </tspan>
<tspan x="10" y="138">  │ ├── beeper@1.1.1 </tspan>
<tspan x="10" y="154">  │ ├─┬ chalk@1.1.3 </tspan>
<tspan x="10" y="170">  │ │ ├── ansi-styles@2.2.1 </tspan>
<tspan x="10" y="186">  │ │ ├── escape-string-regexp@1.0.5 </tspan>
<tspan x="10" y="202">  │ │ ├─┬ has-ansi@2.0.0 </tspan>
<tspan x="10" y="218">  │ │ │ └── ansi-regex@2.1.1 </tspan>
<tspan x="10" y="234">  │ │ ├── strip-ansi@3.0.1 </tspan>
<tspan x="10" y="250">  │ │ └── supports-color@2.0.0 </tspan>
<tspan x="10" y="266">  │ ├── dateformat@2.0.0 </tspan>
<tspan x="10" y="282">  │ ├─┬ fancy-log@1.3.0 </tspan>
<tspan x="10" y="298">  │ │ └── time-stamp@1.0.1 </tspan>
<tspan x="10" y="314">  │ ├─┬ gulplog@1.0.0 </tspan>
<tspan x="10" y="330">  │ │ └── glogg@1.0.0 </tspan>
<tspan x="10" y="346">  │ ├─┬ has-gulplog@0.1.0 </tspan>
<tspan x="10" y="362">  │ │ └── sparkles@1.0.0 </tspan>
<tspan x="10" y="378">  │ ├── lodash._reescape@3.0.0 </tspan>
<tspan x="10" y="394">  │ ├── lodash._reevaluate@3.0.0 </tspan>
<tspan x="10" y="410">  │ ├── lodash._reinterpolate@3.0.0 </tspan>
<tspan x="10" y="426">  │ ├─┬ lodash.template@3.6.2 </tspan>
<tspan x="10" y="442">  │ │ ├── lodash._basecopy@3.0.1 </tspan>
<tspan x="10" y="458">  │ │ ├── lodash._basetostring@3.0.1 </tspan>
<tspan x="10" y="474">  │ │ ├── lodash._basevalues@3.0.0 </tspan>
<tspan x="10" y="490">  │ │ ├── lodash._isiterateecall@3.0.9 </tspan>
<tspan x="10" y="506">  │ │ ├─┬ lodash.escape@3.2.0 </tspan>
<tspan x="10" y="522">  │ │ │ └── lodash._root@3.0.1 </tspan>
<tspan x="10" y="538">  │ │ ├─┬ lodash.keys@3.1.2 </tspan>
<tspan x="10" y="554">  │ │ │ ├── lodash._getnative@3.9.1 </tspan>
<tspan x="10" y="570">  │ │ │ ├── lodash.isarguments@3.1.0 </tspan>
<tspan x="10" y="586">  │ │ │ └── lodash.isarray@3.0.4 </tspan>
<tspan x="10" y="602">  │ │ ├── lodash.restparam@3.6.1 </tspan>
<tspan x="10" y="618">  │ │ └── lodash.templatesettings@3.1.1 </tspan>
<tspan x="10" y="634">  │ ├── minimist@1.2.0 </tspan>
<tspan x="10" y="650">  │ ├─┬ multipipe@0.1.2 </tspan>
<tspan x="10" y="666">  │ │ └─┬ duplexer2@0.0.2 </tspan>
<tspan x="10" y="682">  │ │   └─┬ readable-stream@1.1.14 </tspan>
<tspan x="10" y="698">  │ │     ├── isarray@0.0.1 </tspan>
<tspan x="10" y="714">  │ │     └── string_decoder@0.10.31 </tspan>
<tspan x="10" y="730">  │ ├── object-assign@3.0.0 </tspan>
<tspan x="10" y="746">  │ ├── replace-ext@0.0.1 </tspan>
<tspan x="10" y="762">  │ └─┬ vinyl@0.5.3 </tspan>
<tspan x="10" y="778">  │   ├── clone@1.0.2 </tspan>
<tspan x="10" y="794">  │   └── clone-stats@0.0.1 </tspan>
<tspan x="10" y="810">  ├─┬ istanbul@0.4.5 </tspan>
<tspan x="10" y="826">  │ ├── abbrev@1.0.9 </tspan>
<tspan x="10" y="842">  │ ├── async@1.5.2 </tspan>
<tspan x="10" y="858">  │ ├─┬ escodegen@1.8.1 </tspan>
<tspan x="10" y="874">  │ │ ├── estraverse@1.9.3 </tspan>
<tspan x="10" y="890">  │ │ ├── esutils@2.0.2 </tspan>
<tspan x="10" y="906">  │ │ ├─┬ optionator@0.8.2 </tspan>
<tspan x="10" y="922">  │ │ │ ├── deep-is@0.1.3 </tspan>
<tspan x="10" y="938">  │ │ │ ├── fast-levenshtein@2.0.6 </tspan>
<tspan x="10" y="954">  │ │ │ ├── levn@0.3.0 </tspan>
<tspan x="10" y="970">  │ │ │ ├── prelude-ls@1.1.2 </tspan>
<tspan x="10" y="986">  │ │ │ └── type-check@0.3.2 </tspan>
<tspan x="10" y="1002">  │ │ └─┬ source-map@0.2.0 </tspan>
<tspan x="10" y="1018">  │ │   └── amdefine@1.0.1 </tspan>
<tspan x="10" y="1034">  │ ├── esprima@2.7.3 </tspan>
<tspan x="10" y="1050">  │ ├─┬ glob@5.0.15 </tspan>
<tspan x="10" y="1066">  │ │ ├── inflight@1.0.6 </tspan>
<tspan x="10" y="1082">  │ │ ├── inherits@2.0.3 </tspan>
<tspan x="10" y="1098">  │ │ ├─┬ minimatch@3.0.3 </tspan>
<tspan x="10" y="1114">  │ │ │ └─┬ brace-expansion@1.1.7 </tspan>
<tspan x="10" y="1130">  │ │ │   ├── balanced-match@0.4.2 </tspan>
<tspan x="10" y="1146">  │ │ │   └── concat-map@0.0.1 </tspan>
<tspan x="10" y="1162">  │ │ └── path-is-absolute@1.0.1 </tspan>
<tspan x="10" y="1178">  │ ├─┬ handlebars@4.0.6 </tspan>
<tspan x="10" y="1194">  │ │ ├─┬ optimist@0.6.1 </tspan>
<tspan x="10" y="1210">  │ │ │ ├── minimist@0.0.10 </tspan>
<tspan x="10" y="1226">  │ │ │ └── wordwrap@0.0.3 </tspan>
<tspan x="10" y="1242">  │ │ ├── source-map@0.4.4 </tspan>
<tspan x="10" y="1258">  │ │ └─┬ uglify-js@2.8.22 </tspan>
<tspan x="10" y="1274">  │ │   ├── source-map@0.5.6 </tspan>
<tspan x="10" y="1290">  │ │   ├── uglify-to-browserify@1.0.2 </tspan>
<tspan x="10" y="1306">  │ │   └─┬ yargs@3.10.0 </tspan>
<tspan x="10" y="1322">  │ │     ├── camelcase@1.2.1 </tspan>
<tspan x="10" y="1338">  │ │     ├─┬ cliui@2.1.0 </tspan>
<tspan x="10" y="1354">  │ │     │ ├─┬ center-align@0.1.3 </tspan>
<tspan x="10" y="1370">  │ │     │ │ ├─┬ align-text@0.1.4 </tspan>
<tspan x="10" y="1386">  │ │     │ │ │ ├─┬ kind-of@3.1.0 </tspan>
<tspan x="10" y="1402">  │ │     │ │ │ │ └── is-buffer@1.1.5 </tspan>
<tspan x="10" y="1418">  │ │     │ │ │ ├── longest@1.0.1 </tspan>
<tspan x="10" y="1434">  │ │     │ │ │ └── repeat-string@1.6.1 </tspan>
<tspan x="10" y="1450">  │ │     │ │ └── lazy-cache@1.0.4 </tspan>
<tspan x="10" y="1466">  │ │     │ ├── right-align@0.1.3 </tspan>
<tspan x="10" y="1482">  │ │     │ └── wordwrap@0.0.2 </tspan>
<tspan x="10" y="1498">  │ │     ├── decamelize@1.2.0 </tspan>
<tspan x="10" y="1514">  │ │     └── window-size@0.1.0 </tspan>
<tspan x="10" y="1530">  │ ├─┬ js-yaml@3.8.3 </tspan>
<tspan x="10" y="1546">  │ │ ├─┬ argparse@1.0.9 </tspan>
<tspan x="10" y="1562">  │ │ │ └── sprintf-js@1.0.3 </tspan>
<tspan x="10" y="1578">  │ │ └── esprima@3.1.3 </tspan>
<tspan x="10" y="1594">  │ ├─┬ mkdirp@0.5.1 </tspan>
<tspan x="10" y="1610">  │ │ └── minimist@0.0.8 </tspan>
<tspan x="10" y="1626">  │ ├── nopt@3.0.6 </tspan>
<tspan x="10" y="1642">  │ ├─┬ once@1.4.0 </tspan>
<tspan x="10" y="1658">  │ │ └── wrappy@1.0.2 </tspan>
<tspan x="10" y="1674">  │ ├── resolve@1.1.7 </tspan>
<tspan x="10" y="1690">  │ ├─┬ supports-color@3.2.3 </tspan>
<tspan x="10" y="1706">  │ │ └── has-flag@1.0.0 </tspan>
<tspan x="10" y="1722">  │ ├─┬ which@1.2.14 </tspan>
<tspan x="10" y="1738">  │ │ └── isexe@2.0.0 </tspan>
<tspan x="10" y="1754">  │ └── wordwrap@1.0.0 </tspan>
<tspan x="10" y="1770">  ├─┬ istanbul-threshold-checker@0.1.0 </tspan>
<tspan x="10" y="1786">  │ ├─┬ istanbul@0.3.22 </tspan>
<tspan x="10" y="1802">  │ │ ├─┬ escodegen@1.7.1 </tspan>
<tspan x="10" y="1818">  │ │ │ ├── esprima@1.2.5 </tspan>
<tspan x="10" y="1834">  │ │ │ └─┬ optionator@0.5.0 </tspan>
<tspan x="10" y="1850">  │ │ │   ├── fast-levenshtein@1.0.7 </tspan>
<tspan x="10" y="1866">  │ │ │   ├── levn@0.2.5 </tspan>
<tspan x="10" y="1882">  │ │ │   └── wordwrap@0.0.3 </tspan>
<tspan x="10" y="1898">  │ │ ├── esprima@2.5.0 </tspan>
<tspan x="10" y="1914">  │ │ ├─┬ fileset@0.2.1 </tspan>
<tspan x="10" y="1930">  │ │ │ └── minimatch@2.0.10 </tspan>
<tspan x="10" y="1946">  │ │ └── supports-color@3.2.3 </tspan>
<tspan x="10" y="1962">  │ └── lodash@3.6.0 </tspan>
<tspan x="10" y="1978">  ├── lodash@4.17.4 </tspan>
<tspan x="10" y="1994">  ├─┬ through2@2.0.3 </tspan>
<tspan x="10" y="2010">  │ ├─┬ readable-stream@2.2.9 </tspan>
<tspan x="10" y="2026">  │ │ ├── buffer-shims@1.0.0 </tspan>
<tspan x="10" y="2042">  │ │ ├── core-util-is@1.0.2 </tspan>
<tspan x="10" y="2058">  │ │ ├── isarray@1.0.0 </tspan>
<tspan x="10" y="2074">  │ │ ├── process-nextick-args@1.0.7 </tspan>
<tspan x="10" y="2090">  │ │ ├── string_decoder@1.0.0 </tspan>
<tspan x="10" y="2106">  │ │ └── util-deprecate@1.0.2 </tspan>
<tspan x="10" y="2122">  │ └── xtend@4.0.1 </tspan>
<tspan x="10" y="2138">  └─┬ vinyl-sourcemaps-apply@0.2.1 </tspan>
<tspan x="10" y="2154">    └── source-map@0.5.6</tspan>
</text>
</svg>
